<svg width="10" height="18" viewBox="0 0 10 18" fill="none" xmlns="http://www.w3.org/2000/svg">
<path d="M6.98087 0.957031C5.90083 0.957031 4.86503 1.38654 4.10133 2.15108C3.33763 2.91562 2.90858 3.95256 2.90858 5.03378V7.30353H0.729361C0.62018 7.30353 0.53125 7.39168 0.53125 7.50186V10.4988C0.53125 10.6081 0.619299 10.6971 0.729361 10.6971H2.90858V16.8453C2.90858 16.9546 2.99663 17.0437 3.10669 17.0437H6.10037C6.20955 17.0437 6.29848 16.9555 6.29848 16.8453V10.6971H8.49708C8.58777 10.6971 8.66701 10.6354 8.68902 10.5473L9.43744 7.55034C9.44481 7.5211 9.44541 7.49056 9.43921 7.46104C9.43301 7.43153 9.42017 7.40382 9.40166 7.38002C9.38316 7.35623 9.35947 7.33697 9.33241 7.32371C9.30535 7.31046 9.27562 7.30356 9.2455 7.30353H6.29848V5.03378C6.29848 4.94407 6.31613 4.85524 6.35043 4.77235C6.38472 4.68947 6.43498 4.61417 6.49835 4.55073C6.56171 4.4873 6.63694 4.43698 6.71973 4.40265C6.80252 4.36832 6.89126 4.35065 6.98087 4.35065H9.27015C9.37933 4.35065 9.46826 4.2625 9.46826 4.15232V1.15536C9.46826 1.04606 9.38021 0.957031 9.27015 0.957031H6.98087Z" fill="#D6E1EA"/>
</svg>
