<svg width="16" height="16" viewBox="0 0 16 16" fill="none" xmlns="http://www.w3.org/2000/svg">
<path d="M4.85 0.5H11.15C13.55 0.5 15.5 2.45 15.5 4.85V11.15C15.5 12.3037 15.0417 13.4101 14.2259 14.2259C13.4101 15.0417 12.3037 15.5 11.15 15.5H4.85C2.45 15.5 0.5 13.55 0.5 11.15V4.85C0.5 3.69631 0.958302 2.58987 1.77409 1.77409C2.58987 0.958302 3.69631 0.5 4.85 0.5ZM4.7 2C3.98392 2 3.29716 2.28446 2.79081 2.79081C2.28446 3.29716 2 3.98392 2 4.7V11.3C2 12.7925 3.2075 14 4.7 14H11.3C12.0161 14 12.7028 13.7155 13.2092 13.2092C13.7155 12.7028 14 12.0161 14 11.3V4.7C14 3.2075 12.7925 2 11.3 2H4.7ZM11.9375 3.125C12.1861 3.125 12.4246 3.22377 12.6004 3.39959C12.7762 3.5754 12.875 3.81386 12.875 4.0625C12.875 4.31114 12.7762 4.5496 12.6004 4.72541C12.4246 4.90123 12.1861 5 11.9375 5C11.6889 5 11.4504 4.90123 11.2746 4.72541C11.0988 4.5496 11 4.31114 11 4.0625C11 3.81386 11.0988 3.5754 11.2746 3.39959C11.4504 3.22377 11.6889 3.125 11.9375 3.125ZM8 4.25C8.99456 4.25 9.94839 4.64509 10.6517 5.34835C11.3549 6.05161 11.75 7.00544 11.75 8C11.75 8.99456 11.3549 9.94839 10.6517 10.6517C9.94839 11.3549 8.99456 11.75 8 11.75C7.00544 11.75 6.05161 11.3549 5.34835 10.6517C4.64509 9.94839 4.25 8.99456 4.25 8C4.25 7.00544 4.64509 6.05161 5.34835 5.34835C6.05161 4.64509 7.00544 4.25 8 4.25ZM8 5.75C7.40326 5.75 6.83097 5.98705 6.40901 6.40901C5.98705 6.83097 5.75 7.40326 5.75 8C5.75 8.59674 5.98705 9.16903 6.40901 9.59099C6.83097 10.0129 7.40326 10.25 8 10.25C8.59674 10.25 9.16903 10.0129 9.59099 9.59099C10.0129 9.16903 10.25 8.59674 10.25 8C10.25 7.40326 10.0129 6.83097 9.59099 6.40901C9.16903 5.98705 8.59674 5.75 8 5.75Z" fill="#D6E1EA"/>
</svg>
