<svg width="18" height="12" viewBox="0 0 18 12" fill="none" xmlns="http://www.w3.org/2000/svg">
<path d="M7.33268 8.5013L11.6577 6.0013L7.33268 3.5013V8.5013ZM16.966 1.9763C17.0743 2.36797 17.1493 2.89297 17.1993 3.55964C17.2577 4.2263 17.2827 4.8013 17.2827 5.3013L17.3327 6.0013C17.3327 7.8263 17.1993 9.16797 16.966 10.0263C16.7577 10.7763 16.2743 11.2596 15.5243 11.468C15.1327 11.5763 14.416 11.6513 13.316 11.7013C12.2327 11.7596 11.241 11.7846 10.3243 11.7846L8.99935 11.8346C5.50768 11.8346 3.33268 11.7013 2.47435 11.468C1.72435 11.2596 1.24102 10.7763 1.03268 10.0263C0.924349 9.63464 0.849349 9.10964 0.799349 8.44297C0.741016 7.7763 0.716016 7.2013 0.716016 6.7013L0.666016 6.0013C0.666016 4.1763 0.799349 2.83464 1.03268 1.9763C1.24102 1.2263 1.72435 0.742969 2.47435 0.534635C2.86602 0.426302 3.58268 0.351302 4.68268 0.301302C5.76602 0.242969 6.75768 0.217969 7.67435 0.217969L8.99935 0.167969C12.491 0.167969 14.666 0.301302 15.5243 0.534635C16.2743 0.742969 16.7577 1.2263 16.966 1.9763Z" fill="#D6E1EA"/>
</svg>
