<svg width="18" height="13" viewBox="0 0 18 13" fill="none" xmlns="http://www.w3.org/2000/svg">
<path fill-rule="evenodd" clip-rule="evenodd" d="M12.8751 5.74063C11.697 4.66698 10.489 2.98993 10.489 0.640625H12.1899C12.1899 2.3607 13.1118 3.62986 14.1437 4.51712C14.6548 4.95663 15.1703 5.28104 15.5594 5.49553C15.753 5.60222 15.9126 5.68024 16.0213 5.73054C16.0755 5.75565 16.1168 5.77375 16.143 5.78496L16.1707 5.79659L16.1739 5.79793L16.1754 5.79854L18 6.52261L16.2566 7.4451L16.2499 7.44869L16.2197 7.46532C16.1917 7.48086 16.1485 7.50525 16.0923 7.53819C15.9797 7.60411 15.8156 7.70388 15.6173 7.83507C15.2188 8.09863 14.6911 8.48301 14.1674 8.96794C13.0843 9.97089 12.1899 11.2424 12.1899 12.6406H10.489C10.489 10.4388 11.8626 8.71036 13.0473 7.61331C13.0738 7.58885 13.1002 7.56462 13.1266 7.54063H0V5.74063H12.8751Z" fill="#274962"/>
</svg>
