<svg width="223" height="33" viewBox="0 0 223 33" fill="none" xmlns="http://www.w3.org/2000/svg">
<path d="M68.9197 16.242L77.0083 31.2891H84.9197L68.9197 1.48305L52.9197 31.2891H60.8753L68.9197 16.242Z" fill="#ECEEFF"/>
<path d="M42.6593 24.3085L42.6814 1.43873H35.6787V31.2891H49.1745L52.9197 24.3085H42.6593Z" fill="#ECEEFF"/>
<path d="M16.0222 0.375015C12.8567 0.370631 9.76111 1.30529 7.12701 3.06072C4.49291 4.81616 2.43871 7.31348 1.2243 10.2367C0.00990371 13.1599 -0.310113 16.3777 0.304745 19.4828C0.919604 22.588 2.44171 25.441 4.67846 27.6809C6.91522 29.9207 9.7661 31.4468 12.8704 32.0659C15.9747 32.6851 19.1929 32.3695 22.1178 31.1592C25.0427 29.9488 27.5429 27.8981 29.302 25.2664C31.0611 22.6348 32 19.5405 32 16.375C32 12.1354 30.3173 8.06908 27.3215 5.06913C24.3258 2.06919 20.2618 0.380887 16.0222 0.375015ZM16.0222 24.9955C14.3163 24.9999 12.6474 24.498 11.2268 23.5535C9.8063 22.6089 8.69795 21.2641 8.04208 19.6893C7.38622 18.1145 7.21234 16.3805 7.54245 14.7069C7.87257 13.0332 8.69184 11.4951 9.89655 10.2873C11.1013 9.07946 12.6372 8.25624 14.3101 7.92181C15.9829 7.58739 17.7173 7.7568 19.2938 8.40861C20.8703 9.06042 22.2179 10.1653 23.1661 11.5834C24.1143 13.0015 24.6205 14.6691 24.6205 16.375C24.6146 18.6595 23.7045 20.8488 22.0892 22.4642C20.4738 24.0795 18.2845 24.9897 16 24.9955H16.0222Z" fill="#ECEEFF"/>
<path d="M115.812 5.29468C112.757 3.79983 109.395 3.04089 105.994 3.07862C101.873 3.07862 99.3462 5.47197 99.3462 8.17557C99.3462 11.7878 101.341 12.8515 108.033 15.1119C114.726 17.3722 117.717 19.544 117.717 23.9761C117.717 29.8044 113.174 31.8431 108.188 31.8431C103.576 31.8802 99.1082 30.2334 95.6232 27.2116L96.687 25.5495C99.8655 28.3124 103.933 29.8385 108.144 29.8487C113.019 29.8487 115.457 27.8321 115.457 24.2199C115.457 20.6077 113.618 19.1894 106.593 16.7961C100.277 14.6908 97.1966 13.4276 97.1966 8.28637C97.1966 4.14233 100.676 1.10632 106.061 1.10632C109.718 1.09615 113.328 1.93037 116.609 3.54399L115.812 5.29468Z" fill="#ECEEFF"/>
<path d="M123.191 31.3778V29.472H131.878V4.29745C129.178 5.50514 126.365 6.44052 123.479 7.08969L122.992 5.62709C126.279 4.687 129.43 3.32379 132.366 1.57169H134.028V29.472H141.274V31.3778H123.191Z" fill="#ECEEFF"/>
<path d="M168.288 1.57169C176.066 1.57169 179.922 4.85147 179.922 11.4997C179.922 18.1479 176.066 21.3612 168.399 21.3612H161.263V31.3778H159.047V1.57169H168.288ZM168.288 19.3002C174.604 19.3002 177.773 16.7074 177.728 11.4775C177.684 6.24759 174.604 3.61047 168.244 3.61047H161.263V19.3002H168.288Z" fill="#ECEEFF"/>
<path d="M187.856 13.8487C188.33 12.261 189.295 10.8647 190.613 9.8611C191.932 8.85747 193.535 8.29831 195.191 8.26421C196.169 8.25036 197.146 8.30218 198.116 8.41933L197.917 10.4581C196.742 10.4581 195.967 10.4581 195.147 10.4581C191.911 10.4581 189.186 12.6742 187.856 17.1063V31.4664H185.64V8.70742H187.856V13.8487Z" fill="#ECEEFF"/>
<path d="M222.36 20.231C222.36 27.4775 218.194 31.821 211.28 31.821C204.366 31.821 200.199 27.3889 200.199 20.231C200.199 13.0731 204.343 8.26421 211.28 8.26421C218.216 8.26421 222.36 12.7185 222.36 20.231ZM220.144 20.231C220.144 13.893 216.776 10.1257 211.147 10.1257C205.518 10.1257 202.105 13.893 202.105 20.231C202.105 26.5689 205.429 29.9595 211.102 29.9595C216.776 29.9595 220.255 26.3473 220.255 20.231H220.144Z" fill="#ECEEFF"/>
</svg>
