<svg width="202" height="33" viewBox="0 0 202 33" fill="none" xmlns="http://www.w3.org/2000/svg">
<path d="M64.8615 15.2904L73.6037 31.2918H81.3281L64.8764 1.23406L48.3499 31.2918L55.9395 31.2766L64.8615 15.2904Z" fill="#FFF0F1"/>
<path d="M15.8351 0.66409C7.10408 0.647797 2.74664e-05 7.80054 2.74664e-05 16.6478C-0.0160815 25.4787 7.05575 32.664 15.8029 32.664C24.534 32.6803 31.638 25.5276 31.638 16.6804C31.638 7.84942 24.5662 0.680384 15.8351 0.66409ZM15.8029 25.2017C11.1474 25.2017 7.37793 21.3728 7.37793 16.6641C7.39404 11.9553 11.1635 8.14269 15.819 8.14269C20.4745 8.14269 24.244 11.9716 24.244 16.6804C24.244 21.3891 20.4584 25.2017 15.8029 25.2017Z" fill="#FFF0F1"/>
<path d="M41.0492 24.3133L41.0792 1.50406H34.1782L34.2634 23.1171L34.1499 31.2882H45.4354L49.3873 24.3133H41.0492Z" fill="#FFF0F1"/>
<path d="M98.2134 4.09039C96.305 4.09039 94.7631 4.5713 93.5875 5.53312C92.412 6.47968 91.8242 7.70867 91.8242 9.22011C91.8242 10.7163 92.3738 11.8766 93.473 12.701C94.5723 13.5254 96.8241 14.5025 100.229 15.6322C103.633 16.762 106.022 17.9376 107.397 19.1589C108.786 20.365 109.48 22.1513 109.48 24.5176C109.48 26.884 108.618 28.6779 106.893 29.8993C105.168 31.1054 103.084 31.7084 100.641 31.7084C95.6944 31.7084 91.5723 30.2275 88.2746 27.2657L89.3051 25.6627C92.4349 28.4107 96.0913 29.7848 100.274 29.7848C104.961 29.7848 107.305 27.9909 107.305 24.4031C107.305 22.6474 106.732 21.3116 105.587 20.3956C104.458 19.4643 102.572 18.5635 99.931 17.6933C97.305 16.8231 95.5417 16.2048 94.6409 15.8384C93.7402 15.4567 92.8471 14.9529 91.9616 14.3269C91.0914 13.701 90.4883 12.9834 90.1524 12.1743C89.8318 11.3499 89.6715 10.327 89.6715 9.1056C89.6715 7.07509 90.4501 5.41862 92.0074 4.13619C93.5799 2.85376 95.6486 2.21255 98.2134 2.21255C101.893 2.22782 105.267 3.01407 108.335 4.5713L107.648 6.24304C104.778 4.80794 101.633 4.09039 98.2134 4.09039Z" fill="#FFF0F1"/>
<path d="M132.06 31.2962H114.725V29.4641H123.06V5.30412C120.465 6.46441 117.778 7.35753 114.999 7.98348L114.519 6.58655C117.954 5.54839 120.961 4.2507 123.541 2.69346H125.122V29.4641H132.06V31.2962Z" fill="#FFF0F1"/>
<path d="M167.158 21.0031L160.91 6.95864C160.29 5.49617 159.845 4.36753 159.575 3.57271C159.448 3.93832 159.027 5.06697 158.311 6.95864L152.016 21.0031H167.158ZM151.182 23.0776L147.319 31.7093H144.934L158.216 1.92743H161.006L174.287 31.7093H171.879L168.04 23.0776H151.182Z" fill="#FFF0F1"/>
<path d="M180.773 31.7093H178.627V9.05696H180.773V31.7093ZM178.245 2.40432C178.245 1.49823 178.73 1.04518 179.7 1.04518C180.669 1.04518 181.162 1.49823 181.178 2.40432C181.194 2.83353 181.059 3.1753 180.773 3.42964C180.487 3.68398 180.129 3.81115 179.7 3.81115C179.271 3.81115 178.921 3.68398 178.651 3.42964C178.38 3.1753 178.245 2.83353 178.245 2.40432Z" fill="#FFF0F1"/>
<path d="M191.074 9.05696V14.1835C191.566 12.5621 192.504 11.2268 193.887 10.1777C195.27 9.12849 196.637 8.60391 197.989 8.60391C199.34 8.60391 200.453 8.6516 201.327 8.74698L201.136 10.7976C200.357 10.734 199.427 10.7022 198.346 10.7022C196.693 10.7022 195.231 11.2745 193.959 12.419C192.687 13.5636 191.725 15.2089 191.074 17.3549V31.7093H188.928V9.05696H191.074Z" fill="#FFF0F1"/>
</svg>
