<svg width="15" height="14" viewBox="0 0 15 14" fill="none" xmlns="http://www.w3.org/2000/svg">
<path d="M3.14795 1.55625C3.14775 1.96878 2.98172 2.36434 2.68639 2.6559C2.39107 2.94746 1.99063 3.11115 1.57319 3.11094C1.15575 3.11073 0.755481 2.94666 0.460451 2.6548C0.16542 2.36295 -0.000208525 1.96723 1.97032e-07 1.55469C0.000208919 1.14216 0.166238 0.746598 0.461564 0.455036C0.756889 0.163475 1.15732 -0.000206073 1.57476 1.94715e-07C1.99221 0.000206463 2.39247 0.164284 2.6875 0.456136C2.98253 0.747989 3.14816 1.14371 3.14795 1.55625ZM3.19517 4.26276H0.0472195V14H3.19517V4.26276ZM8.16894 4.26276H5.03673V14H8.13746V8.89028C8.13746 6.04378 11.8914 5.77935 11.8914 8.89028V14H15V7.83256C15 3.03394 9.44386 3.21282 8.13746 5.56936L8.16894 4.26276Z" fill="#D6E1EA"/>
</svg>
