<svg width="213" height="28" viewBox="0 0 213 28" fill="none" xmlns="http://www.w3.org/2000/svg">
<path d="M48.7116 27.0576L55.9586 27.0403L63.3187 13.8906L70.688 27.0576H77.9259L63.3187 0.957844L48.7116 27.0576Z" fill="#ECF6FF"/>
<path d="M39.3369 20.9397L39.364 0.930989H32.9589V27.0524H45.2893L48.7068 20.9397H39.3369Z" fill="#ECF6FF"/>
<path d="M15.0179 9.01487e-06C6.95156 -0.00866777 0.401641 6.24729 0.392588 13.9826C0.383534 21.718 6.91535 27.9913 14.9771 28C23.0434 28.0087 29.5934 21.7527 29.6024 14.0174C29.6115 6.28634 23.0797 0.0130242 15.0133 9.01487e-06H15.0179ZM14.9907 21.5358C10.6498 21.5314 7.1281 18.1518 7.13262 13.9913C7.14168 9.82647 10.6633 6.45554 15.0088 6.45988C19.3543 6.46421 22.8714 9.84382 22.8624 14.0087C22.8624 18.1735 19.3317 21.5445 14.9862 21.5358H14.9907Z" fill="#ECF6FF"/>
<path d="M99.6525 25.6336C93.0121 25.6336 89.2686 21.408 89.2686 14.0154C89.2686 6.62277 93.0121 2.35379 100.096 2.35379C102.993 2.35379 106.469 3.0783 108.697 4.23232L109.407 2.77896C107.135 1.41236 103.301 0.557698 100.051 0.557698C91.7627 0.557698 87.2633 5.38199 87.2633 14.0111C87.2633 22.6401 91.7627 27.421 99.6072 27.421C104.242 27.421 108.117 26.267 110.525 24.1759L109.588 22.7225C107.271 24.6011 103.885 25.6249 99.6525 25.6249V25.6336Z" fill="#ECF6FF"/>
<path d="M125.899 0.993652L113.777 27.0457H115.959L119.48 19.4882H134.852L138.374 27.0457H140.556L128.434 0.993652H125.894H125.899ZM120.241 17.6921L125.989 5.39278C126.438 4.28215 126.881 3.21491 127.148 2.44702C127.415 3.21491 127.863 4.28215 128.352 5.39278L134.056 17.6921H120.241Z" fill="#ECF6FF"/>
<path d="M165.816 9.27998C165.816 3.85699 162.249 0.993652 155.21 0.993652H145.94V27.0457H147.945V17.4795H155.654L164.254 27.0457H166.436V26.8331L157.835 17.3537C162.471 16.7117 165.811 13.6401 165.811 9.27998H165.816ZM147.945 15.6878V2.78975H155.21C160.913 2.78975 163.765 5.05439 163.765 9.27998C163.765 13.1672 160.334 15.6878 155.789 15.6878H147.945Z" fill="#ECF6FF"/>
<path d="M175.206 14.6596H188.622V12.8678H175.206V2.78541H190.401V0.993652H173.2V27.0457H190.849V25.2539H175.206V14.6596Z" fill="#ECF6FF"/>
<path d="M212.272 12.8674H204.495V5.41406H202.626V12.8674H194.849V14.6592H202.626V22.1125H204.495V14.6592H212.272V12.8674Z" fill="#ECF6FF"/>
</svg>
