<svg width="370" height="30" viewBox="0 0 370 30" fill="none" xmlns="http://www.w3.org/2000/svg">
<path d="M47.3006 28.0574L54.2457 28.04L61.2992 14.8904L68.3615 28.0574H75.2979L61.2992 1.95762L47.3006 28.0574Z" fill="#ECF6FF"/>
<path d="M38.3272 21.9392L38.3532 1.93054H32.215V28.052H44.0316L47.3068 21.9392H38.3272Z" fill="#ECF6FF"/>
<path d="M15.016 1.00001C7.28573 0.991332 1.00868 7.24729 1.00001 14.9826C0.991333 22.718 7.25103 28.9913 14.977 29C22.7072 29.0087 28.9843 22.7527 28.9929 15.0174C29.0016 7.28634 22.7419 1.01302 15.0117 1.00001H15.016ZM14.99 22.5358C10.8299 22.5314 7.45491 19.1518 7.45925 14.9913C7.46793 10.8265 10.8429 7.45554 15.0073 7.45988C19.1718 7.46421 22.5424 10.8438 22.5337 15.0087C22.5337 19.1735 19.1501 22.5445 14.9856 22.5358H14.99Z" fill="#ECF6FF"/>
<path d="M106.461 28.6208H105.615V16.3515H88.1854V28.6208H87.3385V4.02303H88.1854V15.544H105.615V4.02303H106.461V28.6208Z" fill="#ECF6FF"/>
<path d="M121.015 28.6208H120.168V19.345L110.893 4.02303H111.858L120.208 17.7301C120.287 17.8351 120.424 18.1174 120.621 18.5769C120.726 18.2224 120.845 17.9401 120.976 17.7301L129.326 4.02303H130.291L121.015 19.345V28.6208Z" fill="#ECF6FF"/>
<path d="M135.569 18.9314H141.911C144.786 18.9314 146.919 18.3537 148.311 17.1983C149.703 16.0429 150.405 14.2705 150.418 11.8809C150.418 9.4914 149.723 7.71894 148.331 6.56356C146.939 5.40818 144.799 4.83048 141.911 4.83048H135.569V18.9314ZM134.722 4.02303H141.911C145.114 4.02303 147.477 4.6598 149 5.93335C150.523 7.20689 151.278 9.18942 151.265 11.8809C151.265 14.5725 150.504 16.555 148.981 17.8285C147.458 19.1021 145.101 19.7388 141.911 19.7388H135.569V28.6208H134.722V4.02303Z" fill="#ECF6FF"/>
<path d="M172.358 28.6208H156.898V4.02303H171.944V4.83048H157.745V15.5834H170.329V16.3909H157.745V27.8134H172.358V28.6208Z" fill="#ECF6FF"/>
<path d="M179.841 18.1436H187.798C189.925 18.1436 191.736 17.5266 193.233 16.2924C194.743 15.0451 195.498 13.4433 195.498 11.4871C195.498 7.04934 192.662 4.83048 186.99 4.83048H179.841V18.1436ZM196.955 28.6208H196.03L187.423 18.9314H179.841V28.6208H178.994V4.02303H186.99C193.227 4.02303 196.345 6.51104 196.345 11.4871C196.345 13.5878 195.596 15.3208 194.1 16.6863C192.616 18.0517 190.745 18.8001 188.487 18.9314L196.955 28.4633V28.6208Z" fill="#ECF6FF"/>
<path d="M203.218 25.7061C201.327 23.5135 200.382 20.3822 200.382 16.3121C200.382 12.2289 201.354 9.09095 203.297 6.89836C205.253 4.70576 208.069 3.60946 211.746 3.60946C213.255 3.60946 214.792 3.79983 216.354 4.18058C217.916 4.56133 219.164 5.06025 220.096 5.67733L219.702 6.36662C218.783 5.80206 217.575 5.33596 216.078 4.96834C214.595 4.60072 213.15 4.41691 211.746 4.41691C208.306 4.41691 205.693 5.441 203.907 7.48918C202.122 9.52422 201.229 12.4521 201.229 16.2727C201.229 20.0933 202.102 23.0343 203.848 25.0956C205.594 27.1438 208.096 28.1679 211.352 28.1679C215.514 28.1679 218.593 27.2029 220.588 25.2729L221.159 25.8834C219.137 27.9578 215.868 28.9885 211.352 28.9753C207.833 28.9753 205.122 27.8856 203.218 25.7061Z" fill="#ECF6FF"/>
<path d="M246.092 28.6208H245.245V16.3515H227.816V28.6208H226.969V4.02303H227.816V15.544H245.245V4.02303H246.092V28.6208Z" fill="#ECF6FF"/>
<path d="M269.666 19.9949L263.895 7.48918C263.383 6.38631 263.009 5.48695 262.773 4.7911C262.366 5.78893 261.978 6.68829 261.611 7.48918L255.84 19.9949H269.666ZM255.466 20.8023L251.882 28.6208H250.956L262.241 4.02303H263.265L274.55 28.6208H273.624L270.04 20.8023H255.466Z" fill="#ECF6FF"/>
<path d="M280.438 18.1436H288.395C290.522 18.1436 292.333 17.5266 293.83 16.2924C295.34 15.0451 296.095 13.4433 296.095 11.4871C296.095 7.04934 293.259 4.83048 287.587 4.83048H280.438V18.1436ZM297.552 28.6208H296.627L288.02 18.9314H280.438V28.6208H279.591V4.02303H287.587C293.824 4.02303 296.942 6.51104 296.942 11.4871C296.942 13.5878 296.193 15.3208 294.697 16.6863C293.213 18.0517 291.342 18.8001 289.084 18.9314L297.552 28.4633V28.6208Z" fill="#ECF6FF"/>
<path d="M322.524 16.8044V25.391C319.518 27.7806 315.855 28.9753 311.535 28.9753C308.2 28.9753 305.607 27.8725 303.756 25.6667C301.905 23.4873 300.979 20.3625 300.979 16.2924C300.979 12.2223 301.951 9.09095 303.894 6.89836C305.85 4.70576 308.601 3.60946 312.146 3.60946C315.691 3.60946 318.704 4.36439 321.185 5.87427L320.772 6.56356C318.303 5.13246 315.421 4.41691 312.126 4.41691C308.83 4.41691 306.29 5.441 304.504 7.48918C302.719 9.52422 301.826 12.4455 301.826 16.253C301.826 20.0605 302.679 23.0015 304.386 25.0759C306.093 27.1372 308.476 28.1679 311.535 28.1679C315.435 28.1679 318.815 27.111 321.678 24.9971V17.6119H310.787V16.8044H322.524Z" fill="#ECF6FF"/>
<path d="M344.838 28.6208H329.378V4.02303H344.424V4.83048H330.225V15.5834H342.809V16.3909H330.225V27.8134H344.838V28.6208Z" fill="#ECF6FF"/>
<path d="M352.321 18.1436H360.278C362.405 18.1436 364.217 17.5266 365.713 16.2924C367.223 15.0451 367.978 13.4433 367.978 11.4871C367.978 7.04934 365.142 4.83048 359.47 4.83048H352.321V18.1436ZM369.435 28.6208H368.51L359.904 18.9314H352.321V28.6208H351.475V4.02303H359.47C365.707 4.02303 368.825 6.51104 368.825 11.4871C368.825 13.5878 368.077 15.3208 366.58 16.6863C365.096 18.0517 363.225 18.8001 360.967 18.9314L369.435 28.4633V28.6208Z" fill="#ECF6FF"/>
<path d="M47.3006 28.0574L54.2457 28.04L61.2992 14.8904L68.3615 28.0574H75.2979L61.2992 1.95762L47.3006 28.0574Z" stroke="white" stroke-width="0.436364"/>
<path d="M38.3272 21.9392L38.3532 1.93054H32.215V28.052H44.0316L47.3068 21.9392H38.3272Z" stroke="white" stroke-width="0.436364"/>
<path d="M15.016 1.00001C7.28573 0.991332 1.00868 7.24729 1.00001 14.9826C0.991333 22.718 7.25103 28.9913 14.977 29C22.7072 29.0087 28.9843 22.7527 28.9929 15.0174C29.0016 7.28634 22.7419 1.01302 15.0117 1.00001H15.016ZM14.99 22.5358C10.8299 22.5314 7.45491 19.1518 7.45925 14.9913C7.46793 10.8265 10.8429 7.45554 15.0073 7.45988C19.1718 7.46421 22.5424 10.8438 22.5337 15.0087C22.5337 19.1735 19.1501 22.5445 14.9856 22.5358H14.99Z" stroke="white" stroke-width="0.436364"/>
<path d="M106.461 28.6208H105.615V16.3515H88.1854V28.6208H87.3385V4.02303H88.1854V15.544H105.615V4.02303H106.461V28.6208Z" stroke="white" stroke-width="0.436364"/>
<path d="M121.015 28.6208H120.168V19.345L110.893 4.02303H111.858L120.208 17.7301C120.287 17.8351 120.424 18.1174 120.621 18.5769C120.726 18.2224 120.845 17.9401 120.976 17.7301L129.326 4.02303H130.291L121.015 19.345V28.6208Z" stroke="white" stroke-width="0.436364"/>
<path d="M135.569 18.9314H141.911C144.786 18.9314 146.919 18.3537 148.311 17.1983C149.703 16.0429 150.405 14.2705 150.418 11.8809C150.418 9.4914 149.723 7.71894 148.331 6.56356C146.939 5.40818 144.799 4.83048 141.911 4.83048H135.569V18.9314ZM134.722 4.02303H141.911C145.114 4.02303 147.477 4.6598 149 5.93335C150.523 7.20689 151.278 9.18942 151.265 11.8809C151.265 14.5725 150.504 16.555 148.981 17.8285C147.458 19.1021 145.101 19.7388 141.911 19.7388H135.569V28.6208H134.722V4.02303Z" stroke="white" stroke-width="0.436364"/>
<path d="M172.358 28.6208H156.898V4.02303H171.944V4.83048H157.745V15.5834H170.329V16.3909H157.745V27.8134H172.358V28.6208Z" stroke="white" stroke-width="0.436364"/>
<path d="M179.841 18.1436H187.798C189.925 18.1436 191.736 17.5266 193.233 16.2924C194.743 15.0451 195.498 13.4433 195.498 11.4871C195.498 7.04934 192.662 4.83048 186.99 4.83048H179.841V18.1436ZM196.955 28.6208H196.03L187.423 18.9314H179.841V28.6208H178.994V4.02303H186.99C193.227 4.02303 196.345 6.51104 196.345 11.4871C196.345 13.5878 195.596 15.3208 194.1 16.6863C192.616 18.0517 190.745 18.8001 188.487 18.9314L196.955 28.4633V28.6208Z" stroke="white" stroke-width="0.436364"/>
<path d="M203.218 25.7061C201.327 23.5135 200.382 20.3822 200.382 16.3121C200.382 12.2289 201.354 9.09095 203.297 6.89836C205.253 4.70576 208.069 3.60946 211.746 3.60946C213.255 3.60946 214.792 3.79983 216.354 4.18058C217.916 4.56133 219.164 5.06025 220.096 5.67733L219.702 6.36662C218.783 5.80206 217.575 5.33596 216.078 4.96834C214.595 4.60072 213.15 4.41691 211.746 4.41691C208.306 4.41691 205.693 5.441 203.907 7.48918C202.122 9.52422 201.229 12.4521 201.229 16.2727C201.229 20.0933 202.102 23.0343 203.848 25.0956C205.594 27.1438 208.096 28.1679 211.352 28.1679C215.514 28.1679 218.593 27.2029 220.588 25.2729L221.159 25.8834C219.137 27.9578 215.868 28.9885 211.352 28.9753C207.833 28.9753 205.122 27.8856 203.218 25.7061Z" stroke="white" stroke-width="0.436364"/>
<path d="M246.092 28.6208H245.245V16.3515H227.816V28.6208H226.969V4.02303H227.816V15.544H245.245V4.02303H246.092V28.6208Z" stroke="white" stroke-width="0.436364"/>
<path d="M269.666 19.9949L263.895 7.48918C263.383 6.38631 263.009 5.48695 262.773 4.7911C262.366 5.78893 261.978 6.68829 261.611 7.48918L255.84 19.9949H269.666ZM255.466 20.8023L251.882 28.6208H250.956L262.241 4.02303H263.265L274.55 28.6208H273.624L270.04 20.8023H255.466Z" stroke="white" stroke-width="0.436364"/>
<path d="M280.438 18.1436H288.395C290.522 18.1436 292.333 17.5266 293.83 16.2924C295.34 15.0451 296.095 13.4433 296.095 11.4871C296.095 7.04934 293.259 4.83048 287.587 4.83048H280.438V18.1436ZM297.552 28.6208H296.627L288.02 18.9314H280.438V28.6208H279.591V4.02303H287.587C293.824 4.02303 296.942 6.51104 296.942 11.4871C296.942 13.5878 296.193 15.3208 294.697 16.6863C293.213 18.0517 291.342 18.8001 289.084 18.9314L297.552 28.4633V28.6208Z" stroke="white" stroke-width="0.436364"/>
<path d="M322.524 16.8044V25.391C319.518 27.7806 315.855 28.9753 311.535 28.9753C308.2 28.9753 305.607 27.8725 303.756 25.6667C301.905 23.4873 300.979 20.3625 300.979 16.2924C300.979 12.2223 301.951 9.09095 303.894 6.89836C305.85 4.70576 308.601 3.60946 312.146 3.60946C315.691 3.60946 318.704 4.36439 321.185 5.87427L320.772 6.56356C318.303 5.13246 315.421 4.41691 312.126 4.41691C308.83 4.41691 306.29 5.441 304.504 7.48918C302.719 9.52422 301.826 12.4455 301.826 16.253C301.826 20.0605 302.679 23.0015 304.386 25.0759C306.093 27.1372 308.476 28.1679 311.535 28.1679C315.435 28.1679 318.815 27.111 321.678 24.9971V17.6119H310.787V16.8044H322.524Z" stroke="white" stroke-width="0.436364"/>
<path d="M344.838 28.6208H329.378V4.02303H344.424V4.83048H330.225V15.5834H342.809V16.3909H330.225V27.8134H344.838V28.6208Z" stroke="white" stroke-width="0.436364"/>
<path d="M352.321 18.1436H360.278C362.405 18.1436 364.217 17.5266 365.713 16.2924C367.223 15.0451 367.978 13.4433 367.978 11.4871C367.978 7.04934 365.142 4.83048 359.47 4.83048H352.321V18.1436ZM369.435 28.6208H368.51L359.904 18.9314H352.321V28.6208H351.475V4.02303H359.47C365.707 4.02303 368.825 6.51104 368.825 11.4871C368.825 13.5878 368.077 15.3208 366.58 16.6863C365.096 18.0517 363.225 18.8001 360.967 18.9314L369.435 28.4633V28.6208Z" stroke="white" stroke-width="0.436364"/>
</svg>
