<svg width="14" height="10" viewBox="0 0 14 10" fill="none" xmlns="http://www.w3.org/2000/svg">
<path fill-rule="evenodd" clip-rule="evenodd" d="M10.0139 3.96667C9.09768 3.13161 8.15813 1.82724 8.15813 0H9.48106C9.48106 1.33783 10.198 2.32496 11.0006 3.01505C11.3982 3.35689 11.7991 3.60921 12.1018 3.77604C12.2523 3.85901 12.3765 3.9197 12.461 3.95882C12.5032 3.97835 12.5353 3.99243 12.5557 4.00115L12.5772 4.0102L12.5797 4.01124L12.5809 4.01171L14 4.57488L12.644 5.29237L12.6388 5.29516L12.6153 5.30809C12.5935 5.32019 12.5599 5.33916 12.5162 5.36477C12.4287 5.41605 12.3011 5.49364 12.1468 5.59568C11.8369 5.80067 11.4264 6.09964 11.0191 6.4768C10.1767 7.25687 9.48106 8.24584 9.48106 9.33333H8.15813C8.15813 7.62083 9.22645 6.27646 10.1479 5.4232C10.1685 5.40417 10.189 5.38533 10.2095 5.36667H0V3.96667H10.0139Z" fill="#18334D"/>
</svg>
