<svg width="18" height="15" viewBox="0 0 18 15" fill="none" xmlns="http://www.w3.org/2000/svg">
<path d="M17.7165 1.9987C17.0749 2.29036 16.3832 2.48203 15.6665 2.5737C16.3999 2.13203 16.9665 1.43203 17.2332 0.590365C16.5415 1.00703 15.7749 1.2987 14.9665 1.46536C14.3082 0.748698 13.3832 0.332031 12.3332 0.332031C10.3749 0.332031 8.77487 1.93203 8.77487 3.90703C8.77487 4.19036 8.8082 4.46536 8.86654 4.7237C5.89987 4.5737 3.2582 3.1487 1.49987 0.990365C1.19154 1.51536 1.01654 2.13203 1.01654 2.78203C1.01654 4.0237 1.64154 5.1237 2.6082 5.7487C2.01654 5.7487 1.46654 5.58203 0.983203 5.33203V5.35703C0.983203 7.09036 2.21654 8.54037 3.84987 8.86537C3.32548 9.00887 2.77495 9.02884 2.24154 8.9237C2.46788 9.6341 2.91115 10.2557 3.50905 10.7011C4.10695 11.1466 4.82941 11.3934 5.57487 11.407C4.31123 12.4074 2.74487 12.9481 1.1332 12.9404C0.84987 12.9404 0.566536 12.9237 0.283203 12.8904C1.86654 13.907 3.74987 14.4987 5.76654 14.4987C12.3332 14.4987 15.9415 9.0487 15.9415 4.3237C15.9415 4.16536 15.9415 4.01536 15.9332 3.85703C16.6332 3.35703 17.2332 2.7237 17.7165 1.9987Z" fill="#D6E1EA"/>
</svg>
